<?xml version="1.0" encoding="utf-8"?>
<!-- Generator: Adobe Illustrator 19.1.0, SVG Export Plug-In . SVG Version: 6.00 Build 0)  -->
<svg version="1.1" id="Layer_1" xmlns="http://www.w3.org/2000/svg" xmlns:xlink="http://www.w3.org/1999/xlink" x="0px" y="0px"
	 viewBox="0 0 423.9 423.9" style="enable-background:new 0 0 423.9 423.9;" width="377px" height="377px" xml:space="preserve">
<style type="text/css">
	.st0{fill:#00AFFF;}
	.st1{fill:#4B2C6B;}
	.st2{fill:#E2E4E8;}
	.st3{fill:#F3F7FF;}
	.st4{fill:#3959F7;}
	.st5{fill:#EAA183;}
	.st6{opacity:0.15;}
	.st7{fill:#F9F4B4;}
	.st8{fill:#FDB595;}
	.st9{opacity:0.1;}
	.st10{fill:#201649;}
	.st11{fill:#DD8773;}
	.st12{fill:#AD665A;}
	.st13{fill:#3B205E;}
	.st14{fill:#FFFBD7;}
	.st15{fill:#FFFFFF;}
	.st16{fill:#CE775F;}
	.st17{fill:#F7B1BC;}
</style>
<g>
	<path class="st0" d="M211.9,423.9c-53.2,0-101.8-19.6-139-51.9C42.8,345.7,27.6,312,16,272.6C11.6,257.4,1.3,240.4,0.3,224
		c-0.2-4-0.3-8-0.3-12C0,94.9,94.9,0,211.9,0c79.4,0,148.7,43.7,184.9,108.4c17.2,30.6,24,66,24,103.6c0,83-44.7,154.9-114.3,189.7
		C278.1,415.9,246,423.9,211.9,423.9z"/>
</g>
<g>
	<g>
		<g>
			<path class="st1" d="M237.1,344.9H46.9c7.7,9.5,16.2,18.4,25.4,26.4h164.9V344.9z"/>
		</g>
	</g>
	<g>
		<g>
			<path class="st2" d="M164.7,344.9h94.5c4.5,0,8.2-3.7,8.2-8.2l0,0H164.7V344.9z"/>
		</g>
		<g>
			<g>
				<path class="st3" d="M161.5,228c-0.9-2.4-3.2-4.1-5.8-4.1H0.3c2.6,45.7,19.6,87.4,46.5,120.9h149.4L161.5,228z"/>
			</g>
		</g>
	</g>
	<g>
		<g>
			<path class="st2" d="M143.5,336.7H40.6c2,2.8,4.1,5.5,6.3,8.2h96.7V336.7z"/>
		</g>
	</g>
</g>
<g>
	<path class="st4" d="M135,113.8H12c-4.2,0-7.5-3.4-7.5-7.5v-2.5c0-4.2,3.4-7.5,7.5-7.5h123c4.2,0,7.5,3.4,7.5,7.5v2.5
		C142.5,110.4,139.1,113.8,135,113.8z"/>
</g>
<g>
	<polygon class="st5" points="206.2,311.4 286.6,390 331.5,331.1 	"/>
</g>
<g>
	<path class="st5" d="M196.2,307.7c0,0-15.4-11-18.9-7.3s0.6,12.1,8.7,14.1C194.2,316.5,196.2,307.7,196.2,307.7z"/>
</g>
<g class="st6">
	<path d="M423.3,228c0,0,3.5-47.2-19-58.9c-22.4-11.7-62.2,11.7-62.2,11.7l21.8,44.7l34.6,9L423.3,228z"/>
</g>
<g>
	<g>
		<g>
			<path class="st1" d="M250.3,135.8c10.6,31.8,11.7,29.2,8.1,50.2c-8.8,51.5,61.6,67.1,78.3,36.2S239.7,104,250.3,135.8z"/>
		</g>
		<g>
			<g>
				<path class="st1" d="M396.9,108.4c-4-1.2-8.3-1.9-13.1-2c-37.2-1.3-60.9-13.5-74.3-34.3c-21.4-33.3-56.8-27.5-77.2-3
					c-46,11.6-18.2,53.3,0,47.6c5-1.6,0-11.8,6.5-1.2c4.2,6.9,5.4,23.5,5.7,25c0.7,3.6,78.7,31.4,71.5,50.5
					c-1.2,3.3,19.2,81.2,67.5,87.9c17.3,2.4,24.3-0.6,29.1-4.4c0.9-3,2.8-6.1,3.6-9.2c0.1-0.3,1.2-0.6,1.2-0.9
					c4.2-16.7,6.5-34.3,6.5-52.3C423.9,174.3,414.1,139,396.9,108.4z"/>
			</g>
		</g>
		<g>
			<g>
				<path class="st7" d="M285.8,180.1c-12.4,12-29.5,78.6-27.8,97.8c3.1,36.2,32,78.5,32,78.5l77.1-0.2
					c23.8-25.6,41.4-57.1,50.3-92.1c-5.8-21.4-14.4-42.7-27.6-63.6C352.5,141.6,285.8,180.1,285.8,180.1z"/>
			</g>
		</g>
		<g>
			<g>
				<g>
					<path class="st8" d="M263.3,146.2l19.2,57.8c9.5,2.6,37.8-25,41.8-34.1l-34.8-59.2L263.3,146.2z"/>
				</g>
				<g class="st9">
					<path d="M262.3,142.4l6.5,20.3c28.4-20-1.9-45.4-1.9-45.4L262.3,142.4z"/>
				</g>
				<g>
					<path class="st8" d="M242.3,74.5c0,0-11.2,3.4-13.1,12c-3.1,14.1,3,25.1,1.3,32.8c-0.9,3.9-3.2,10.2-3.3,11.8
						c-0.4,6.1,3.1,4.7,7.7,5.1c0,0,5.6,19.6,11.9,23.1c10.1,5.5,35-14.6,40.2-21.2c5.2-6.5,4.3-28.1-8.2-43.9
						C272.4,86.1,261.9,72.5,242.3,74.5z"/>
				</g>
				<g>
					<g>
						
							<ellipse transform="matrix(-0.9936 0.1128 -0.1128 -0.9936 489.121 205.3698)" class="st10" cx="238.8" cy="116.5" rx="1.7" ry="2.2"/>
					</g>
				</g>
				<g>
					<path class="st1" d="M223.8,87.1c0,0,6.7-4.5,7.3-3.4c7.1,11.5,19.1,22.7,40.8,22.1c4.1-0.1,13.8-3.9,18.3,5.7
						c13.8,29.8,18.3,58.2,35.5,62.2c2,0.5,6.7,0.1,9-0.1c18.2-1.6,27.4-5.5,30.5-10.9c12.1-21.2-69.8-65.1-71.4-78
						c-0.1-0.7-12-40.9-45.8-24.5C218.8,74.3,223.8,87.1,223.8,87.1z"/>
				</g>
				<g>
					<path class="st8" d="M292.3,114.2c-4.7,6.1-12.8,7.4-18.3,3.1c-5.4-4.4-6-12.8-1.4-18.9c4.7-6.1,12.8-7.4,18.3-3.1
						C296.3,99.7,297,108.2,292.3,114.2z"/>
				</g>
				<g>
					<path class="st11" d="M276.6,104.5c-0.2,0-0.4-0.1-0.6-0.2c-0.4-0.3-0.5-1-0.2-1.4c1.8-2.3,3.7-3.4,5.6-3.3
						c1.9,0.1,3.3,1.5,3.8,2.2c0.3,0.5,0.2,1.1-0.3,1.4c-0.5,0.3-1.1,0.2-1.4-0.3c0,0-0.9-1.2-2.2-1.3c-1.2-0.1-2.5,0.8-3.9,2.5
						C277.1,104.3,276.9,104.5,276.6,104.5z"/>
				</g>
				<g>
					<path class="st12" d="M246.2,143.1c-0.5,0-0.9-0.3-1-0.8c-0.1-0.5,0.2-1.1,0.8-1.2l0,0c0,0,2.1-0.5,3.1-2.1
						c0.5-0.8,0.6-1.8,0.2-2.9c-0.1-0.5,0.2-1.1,0.7-1.2c0.5-0.1,1.1,0.2,1.2,0.7c0.5,1.7,0.3,3.2-0.5,4.5c-1.4,2.3-4.2,2.9-4.3,3
						C246.4,143,246.3,143.1,246.2,143.1z"/>
				</g>
			</g>
		</g>
		<g>
			<path class="st10" d="M234.1,110.6c-0.5,0-0.9-0.3-1-0.8c-0.1-0.5,0.3-1.1,0.8-1.2c0.1,0,3.1-0.6,8.2-0.5c0.6,0,1,0.5,1,1
				c0,0.5-0.5,1-1,1c0,0,0,0,0,0c-4.8-0.1-7.8,0.5-7.8,0.5C234.2,110.5,234.1,110.6,234.1,110.6z"/>
		</g>
		<g>
			<path class="st13" d="M413.7,205.2c-0.5,0-0.9-0.4-1-0.9l0-0.1c-0.7-6.1-2.9-24.5-17-33.1c-10.5-6.4-25.3-6.1-44.2,0.8
				c-20.6,7.6-35.2,8.5-43.4,2.5c-8.6-6.2-8.3-17.9-8.1-25c0-0.6,0-1.2,0-1.7c0.3-14.9-6.7-28.4-6.8-28.5c-0.3-0.5-0.1-1.1,0.4-1.4
				c0.5-0.3,1.1-0.1,1.4,0.4c0.3,0.6,7.3,14,7,29.5c0,0.5,0,1.1,0,1.8c-0.2,6.6-0.5,17.7,7.2,23.3c7.6,5.5,21.6,4.6,41.5-2.8
				c19.5-7.2,34.9-7.4,45.9-0.7c14.9,9.1,17.2,28.3,17.9,34.6l0,0.1c0.1,0.5-0.3,1-0.9,1.1C413.8,205.2,413.8,205.2,413.7,205.2z"/>
		</g>
		<g>
			<path class="st13" d="M349,127.4c-20.7,0-37.4-14-50.7-42.3c-6.2-13.2-14.7-21.4-25.3-24.4c-17.6-5-35.2,6.5-35.4,6.6
				c-0.5,0.3-1.1,0.2-1.4-0.3c-0.3-0.5-0.2-1.1,0.3-1.4c0.7-0.5,18.5-12,37.1-6.8c11.2,3.1,20.1,11.7,26.6,25.5
				c15.5,32.9,35.5,45.9,61.1,39.6c12.5-3.1,24.4-4.7,35.4-4.8c0,0,0,0,0,0c0.5,0,1,0.4,1,1c0,0.6-0.4,1-1,1
				c-10.8,0.1-22.6,1.7-34.9,4.7C357.3,126.8,353.1,127.4,349,127.4z"/>
		</g>
	</g>
</g>
<g>
	<g>
		<g>
			<g>
				<path class="st8" d="M378.4,209.5c0,0,32.2,130.1,10.8,177.5c-32.4,71.8-193.3-38.2-201.2-40.3c-10.1-2.7-11.8-2-25.3-9.5
					c-2.4-1.3-0.6-1.6-17-1.4c-1.3,0-22.9,2.4-25.4-1.1c-3.4-4.9,17-15.6,22.2-17.5c1.4-0.5,7.8-5.4,15.9-8.9
					c5.6-2.5,27.9-2.3,36.3,0.2c12.1,3.6,75,34.2,123.7,37.2c5.3,0.3,10,0.2,10,0.2c5.4-32.9-17.6-113.5,0.8-149.8
					C336.8,180.9,369.8,184.5,378.4,209.5z"/>
			</g>
			<g class="st9">
				<polygon points="393,288.1 394.3,300.4 326.2,294 325.8,290.2 				"/>
			</g>
		</g>
		<g>
			<path class="st14" d="M400.7,290.3c-9.8-66-16.9-81.1-28.8-98.7c-13.1-19.3-53.4-23.9-58.1,11.1c-1,21.9,2.3,48.5,4.5,88.4
				L400.7,290.3z"/>
		</g>
		<g>
			<path class="st15" d="M317.4,291.1l-0.1-1c-0.8-14.1-1.7-26.6-2.5-37.5c-1.5-20-2.7-35.8-2-50c1.4-10.5,6-18.3,13.4-22.8
				c0.5-0.3,1.1-0.1,1.4,0.3c0.3,0.5,0.1,1.1-0.3,1.4c-6.8,4.2-11.1,11.5-12.4,21.3c-0.6,14,0.5,29.7,2,49.6
				c0.8,10.7,1.7,22.8,2.5,36.6l39.2-0.4c0,0,0,0,0,0c0.5,0,1,0.4,1,1c0,0.6-0.4,1-1,1L317.4,291.1z"/>
		</g>
		<g>
			<path class="st16" d="M348.3,357.9c-0.3,0-0.6-0.1-0.7-0.3c-0.1-0.1-8.3-9.3-19.3-10.7c-0.5-0.1-0.9-0.6-0.9-1.1
				c0.1-0.5,0.6-0.9,1.1-0.9c11.7,1.5,20.2,11,20.5,11.4c0.4,0.4,0.3,1-0.1,1.4C348.7,357.8,348.5,357.9,348.3,357.9z"/>
		</g>
	</g>
	<g>
		<path class="st11" d="M124.8,328.7c-0.5,0-0.9-0.3-1-0.8c-0.1-0.5,0.3-1.1,0.8-1.2l30.1-5.8c0.5-0.1,1.1,0.3,1.2,0.8
			c0.1,0.5-0.3,1.1-0.8,1.2l-30.1,5.8C124.9,328.7,124.8,328.7,124.8,328.7z"/>
	</g>
	<g>
		<path class="st11" d="M142.5,318.1c-0.4,0-0.8-0.3-1-0.7c-0.2-0.5,0.1-1.1,0.7-1.2l12.4-3.8c0.5-0.2,1.1,0.1,1.2,0.7
			c0.2,0.5-0.1,1.1-0.7,1.2l-12.4,3.8C142.7,318.1,142.6,318.1,142.5,318.1z"/>
	</g>
</g>
<g>
	<polygon class="st17" points="37.1,158.3 39,164.9 56.4,147.5 48,147.5 	"/>
	<polygon class="st17" points="81.8,147.5 73.3,147.5 42.7,178.1 44.6,184.7 	"/>
	<polygon class="st17" points="107.1,147.5 98.6,147.5 48.3,197.8 50.2,204.4 	"/>
	<polygon class="st17" points="132.5,147.5 124,147.5 54,217.5 55.8,224.1 	"/>
	<polygon class="st17" points="157.8,147.5 149.3,147.5 59.6,237.3 61.5,243.9 	"/>
	<path class="st17" d="M77.8,252.9l99.7-99.7l-1.6-5.7h-1.1L69.5,252.7c-0.1,0.1-0.1,0.1-0.2,0.2H77.8z"/>
	<path class="st17" d="M188.7,192.7l-1.9-6.6l-66.6,66.6c-0.1,0.1-0.1,0.1-0.2,0.2h8.4L188.7,192.7z"/>
	<path class="st17" d="M199.9,232.2l-1.9-6.6l-27.1,27.1c-0.1,0.1-0.1,0.1-0.2,0.2h8.4L199.9,232.2z"/>
	<path class="st17" d="M183,173l-1.9-6.6l-86.3,86.3c-0.1,0.1-0.1,0.1-0.2,0.2h8.4L183,173z"/>
	<path class="st17" d="M194.3,212.4l-1.9-6.6l-46.9,46.9c-0.1,0.1-0.1,0.1-0.2,0.2h8.4L194.3,212.4z"/>
	<path class="st17" d="M205.5,251.9l-1.9-6.6l-7.4,7.4c-0.1,0.1-0.1,0.1-0.2,0.2h8.4L205.5,251.9z"/>
</g>
</svg>
